<?xml version="1.0" encoding="UTF-8"?>
<svg xmlns="http://www.w3.org/2000/svg" xmlns:xlink="http://www.w3.org/1999/xlink" width="200.77pt" height="153.47pt" viewBox="0 0 200.77 153.47" version="1.1">
<defs>
<clipPath id="clip1">
  <path d="M 84 0 L 200.769531 0 L 200.769531 124 L 84 124 Z M 84 0 "/>
</clipPath>
<clipPath id="clip2">
  <path d="M 96 128 L 200.769531 128 L 200.769531 153.46875 L 96 153.46875 Z M 96 128 "/>
</clipPath>
</defs>
<g id="surface1">
<path style=" stroke:none;fill-rule:nonzero;fill:rgb(66.299438%,15.699768%,19.599915%);fill-opacity:1;" d="M 35.507813 47.300781 L 53.496094 47.300781 C 57.269531 47.300781 60.175781 46.40625 62.285156 44.597656 C 64.363281 42.816406 65.402344 40.292969 65.402344 37.027344 C 65.402344 33.730469 64.363281 31.175781 62.285156 29.398438 C 60.175781 27.585938 57.269531 26.695313 53.496094 26.695313 L 35.507813 26.695313 Z M 35.507813 96.375 L 54.03125 96.375 C 58.1875 96.375 61.453125 95.394531 63.800781 93.40625 C 66.144531 91.445313 67.332031 88.6875 67.332031 85.152344 C 67.332031 81.558594 66.144531 78.769531 63.800781 76.75 C 61.453125 74.761719 58.1875 73.753906 54.03125 73.753906 L 35.507813 73.753906 Z M 0.355469 123.597656 L 0.355469 0.00390625 L 60.355469 0.00390625 C 68.429688 0.00390625 74.546875 0.597656 78.765625 1.785156 C 82.949219 2.972656 86.75 4.992188 90.105469 7.84375 C 93.519531 10.601563 96.160156 14.105469 98.003906 18.320313 C 99.871094 22.507813 100.792969 27.082031 100.792969 32.007813 C 100.792969 39.191406 99.011719 45.160156 95.417969 49.882813 C 91.828125 54.601563 86.632813 57.867188 79.863281 59.648438 C 87.730469 61.339844 93.695313 64.667969 97.765625 69.65625 C 101.832031 74.640625 103.851563 81.175781 103.851563 89.25 C 103.851563 100.503906 100.167969 109.023438 92.835938 114.839844 C 85.503906 120.691406 74.753906 123.597656 60.535156 123.597656 L 0.355469 123.597656 "/>
<g clip-path="url(#clip1)" clip-rule="nonzero">
<path style=" stroke:none;fill-rule:nonzero;fill:rgb(66.299438%,15.699768%,19.599915%);fill-opacity:1;" d="M 123.457031 123.597656 L 84.476563 0.00390625 L 123.964844 0.00390625 L 145.871094 82.984375 L 169.03125 0.00390625 L 200.769531 0.00390625 L 161.191406 123.597656 L 123.457031 123.597656 "/>
</g>
<path style=" stroke:none;fill-rule:evenodd;fill:rgb(17.599487%,20.799255%,56.098938%);fill-opacity:1;" d="M 98.511719 44.503906 L 86.023438 4.914063 C 87.449219 5.765625 88.808594 6.742188 90.105469 7.84375 C 93.519531 10.601563 96.160156 14.105469 98.003906 18.320313 C 99.871094 22.507813 100.792969 27.082031 100.792969 32.007813 C 100.792969 36.695313 100.035156 40.863281 98.511719 44.503906 "/>
<path style=" stroke:none;fill-rule:nonzero;fill:rgb(17.599487%,20.799255%,56.098938%);fill-opacity:1;" d="M 78.703125 152.988281 L 78.703125 128.609375 L 85.753906 128.609375 L 93.597656 141.460938 L 93.289063 128.609375 L 99.464844 128.609375 L 99.464844 152.988281 L 93.429688 152.988281 L 84.539063 138.300781 L 84.8125 152.988281 Z M 62.710938 142.835938 L 66.65625 142.835938 L 64.683594 135.730469 Z M 53.960938 152.988281 L 61.457031 128.609375 L 69.386719 128.609375 L 77.050781 152.988281 L 69.351563 152.988281 L 67.910156 148.097656 L 61.339844 148.097656 L 59.980469 152.988281 Z M 31.691406 152.988281 L 31.691406 128.609375 L 38.742188 128.609375 L 46.585938 141.460938 L 46.273438 128.609375 L 52.453125 128.609375 L 52.453125 152.988281 L 46.414063 152.988281 L 37.523438 138.300781 L 37.800781 152.988281 Z M 19.988281 152.988281 L 19.988281 128.609375 L 27.609375 128.609375 L 27.609375 152.988281 Z M 0 152.988281 L 0 128.609375 L 17.640625 128.609375 L 17.640625 134.289063 L 7.480469 134.289063 L 7.480469 138.335938 L 15.460938 138.335938 L 15.460938 143.8125 L 7.480469 143.8125 L 7.480469 152.988281 L 0 152.988281 "/>
<g clip-path="url(#clip2)" clip-rule="nonzero">
<path style=" stroke:none;fill-rule:nonzero;fill:rgb(17.599487%,20.799255%,56.098938%);fill-opacity:1;" d="M 185.738281 142.851563 L 189.6875 142.851563 L 187.714844 135.75 Z M 176.988281 153.007813 L 184.484375 128.628906 L 192.414063 128.628906 L 200.085938 153.007813 L 192.382813 153.007813 L 190.941406 148.117188 L 184.367188 148.117188 L 183.011719 153.007813 Z M 165.4375 133.828125 L 161.984375 133.828125 L 161.984375 138.59375 L 165.535156 138.59375 C 166.40625 138.59375 167.113281 138.371094 167.660156 137.925781 C 168.210938 137.480469 168.484375 136.90625 168.484375 136.210938 C 168.484375 135.40625 168.234375 134.8125 167.726563 134.417969 C 167.214844 134.023438 166.445313 133.828125 165.4375 133.828125 Z M 154.570313 153.007813 L 154.570313 128.628906 L 166.476563 128.628906 C 169.671875 128.628906 172.058594 129.21875 173.652344 130.398438 C 175.238281 131.585938 176.035156 133.371094 176.035156 135.75 C 176.035156 137.394531 175.671875 138.78125 174.945313 139.917969 C 174.21875 141.046875 173.164063 141.863281 171.777344 142.355469 L 176.171875 153.007813 L 168.15625 153.007813 L 164.539063 143.761719 L 161.984375 143.761719 L 161.984375 153.007813 Z M 142.867188 153.007813 L 142.867188 128.628906 L 150.488281 128.628906 L 150.488281 153.007813 Z M 120.976563 153.007813 L 120.976563 128.628906 L 139.355469 128.628906 L 139.355469 134.308594 L 128.113281 134.308594 L 128.113281 137.890625 L 137.347656 137.890625 L 137.347656 143.171875 L 128.113281 143.171875 L 128.113281 147.308594 L 139.488281 147.308594 L 139.488281 153.007813 Z M 111.097656 138.390625 C 111.070313 136.925781 110.796875 135.78125 110.265625 134.960938 C 109.730469 134.132813 109.011719 133.722656 108.109375 133.722656 C 106.851563 133.722656 105.929688 134.308594 105.339844 135.476563 C 104.746094 136.648438 104.453125 138.488281 104.453125 140.996094 C 104.453125 143.328125 104.734375 145.039063 105.304688 146.113281 C 105.871094 147.199219 106.769531 147.738281 108.003906 147.738281 C 108.949219 147.738281 109.695313 147.402344 110.230469 146.734375 C 110.757813 146.0625 111.097656 145.039063 111.230469 143.652344 L 118.128906 144.117188 C 117.78125 147.046875 116.726563 149.335938 114.941406 150.992188 C 113.167969 152.644531 110.855469 153.46875 108.003906 153.46875 C 104.582031 153.46875 101.859375 152.351563 99.828125 150.109375 C 97.792969 147.863281 96.78125 144.847656 96.78125 141.066406 C 96.78125 137.007813 97.777344 133.835938 99.773438 131.546875 C 101.769531 129.269531 104.523438 128.128906 108.035156 128.128906 C 110.980469 128.128906 113.34375 129.003906 115.125 130.746094 C 116.910156 132.492188 117.914063 134.910156 118.128906 138.015625 L 111.097656 138.390625 "/>
</g>
<path style=" stroke:none;fill-rule:evenodd;fill:rgb(66.299438%,15.699768%,19.599915%);fill-opacity:1;" d="M 99.464844 149.691406 C 97.675781 147.496094 96.78125 144.617188 96.78125 141.066406 C 96.78125 137.21875 97.675781 134.171875 99.464844 131.917969 L 99.464844 149.691406 "/>
</g>
</svg>
