<?xml version="1.0" encoding="utf-8"?>
<!-- Generator: Adobe Illustrator 17.1.0, SVG Export Plug-In . SVG Version: 6.00 Build 0)  -->
<!DOCTYPE svg PUBLIC "-//W3C//DTD SVG 1.1//EN" "http://www.w3.org/Graphics/SVG/1.1/DTD/svg11.dtd">
<svg version="1.1" id="sun" xmlns="http://www.w3.org/2000/svg" xmlns:xlink="http://www.w3.org/1999/xlink" x="0px" y="0px"
	 viewBox="0 0 1010 1010" enable-background="new 0 0 1010 1010" xml:space="preserve">
<g>
	<path fill="#FFB400" d="M1010,505c0,278.9102-226.1006,505-505,505C226.0957,1010,0,783.9102,0,505S226.0957,0,505,0
		C783.8994,0,1010,226.0898,1010,505z"/>
	<g id="sun-sun">
		<g>
			<path fill="#FFFFFF" d="M505,651.2969c-80.6704,0-146.3018-65.6319-146.3018-146.2969S424.3296,358.7085,505,358.7085
				c80.6758,0,146.2969,65.6265,146.2969,146.2915S585.6758,651.2969,505,651.2969L505,651.2969z M505,378.3037
				c-69.8682,0-126.707,56.8384-126.707,126.6963c0,69.8525,56.8388,126.6914,126.707,126.6914
				c69.874,0,126.7129-56.8389,126.7129-126.6914C631.7129,435.1421,574.874,378.3037,505,378.3037L505,378.3037z"/>
		</g>
		<g>
			<polygon fill="#FFFFFF" points="514.7969,766.293 495.2026,766.293 495.2026,673.5703 514.7969,673.5703 514.7969,766.293 			"/>
		</g>
		<g>
			<polygon fill="#FFFFFF" points="514.7969,336.4185 495.2026,336.4185 495.2026,243.707 514.7969,243.707 514.7969,336.4185 			
				"/>
		</g>
		<g>
			<polygon fill="#FFFFFF" points="336.4238,514.7969 243.707,514.7969 243.707,495.2026 336.4238,495.2026 336.4238,514.7969 			
				"/>
		</g>
		<g>
			<polygon fill="#FFFFFF" points="766.293,514.7969 673.582,514.7969 673.582,495.2026 766.293,495.2026 766.293,514.7969 			"/>
		</g>
		<g>
			<polygon fill="#FFFFFF" points="327.1689,696.6953 313.3101,682.8525 376.6504,619.4854 390.5146,633.3496 327.1689,696.6953 			
				"/>
		</g>
		<g>
			<polygon fill="#FFFFFF" points="633.3496,390.5088 619.4863,376.6553 682.8311,313.2988 696.6953,327.1523 633.3496,390.5088 			
				"/>
		</g>
		<g>
			<polygon fill="#FFFFFF" points="682.8311,696.6953 619.4863,633.3496 633.3496,619.4854 696.6953,682.8525 682.8311,696.6953 			
				"/>
		</g>
		<g>
			<polygon fill="#FFFFFF" points="376.6504,390.5088 313.3101,327.1523 327.1689,313.2988 390.5146,376.6553 376.6504,390.5088 			
				"/>
		</g>
	</g>
</g>
</svg>
