<svg width="153" height="26" viewBox="0 0 153 26" fill="none" xmlns="http://www.w3.org/2000/svg">
<rect width="5" height="4.99704" rx="1" fill="#FBAA19"/>
<rect y="6.99609" width="5" height="4.99704" rx="1" fill="#FBAA19"/>
<rect y="13.9917" width="5" height="4.99704" rx="1" fill="#FBAA19"/>
<rect x="7" width="5" height="4.99704" rx="1" fill="#FBAA19"/>
<rect x="14" width="5" height="4.99704" rx="1" fill="#FBAA19"/>
<rect x="7" y="6.99609" width="5" height="4.99704" rx="1" fill="white"/>
<rect x="14" y="6.99609" width="5" height="4.99704" rx="1" fill="white"/>
<rect x="21" y="6.99609" width="5" height="4.99704" rx="1" fill="white"/>
<rect x="7" y="14" width="5" height="4.99704" rx="1" fill="white"/>
<rect x="14" y="14" width="5" height="4.99704" rx="1" fill="white"/>
<rect x="21" y="14" width="5" height="4.99704" rx="1" fill="white"/>
<rect x="7" y="21" width="5" height="4.99704" rx="1" fill="white"/>
<rect x="14" y="21" width="5" height="4.99704" rx="1" fill="white"/>
<rect x="21" y="21" width="5" height="4.99704" rx="1" fill="white"/>
<path d="M40.6959 15.3996C40.5308 15.3403 40.3658 15.2776 40.2028 15.2157C40.1008 15.177 39.9997 15.1386 39.8998 15.1015C38.0395 14.3913 36.283 13.7162 36.283 12.1117C36.283 10.6299 37.8491 9.85833 39.3893 9.85833C41.0074 9.85833 42.7552 10.6299 42.9542 12.1029C43.0062 12.5851 43.3177 12.8657 43.7676 12.8657H45.0396C45.3597 12.8657 45.5414 12.743 45.6366 12.629C45.7318 12.5238 45.8529 12.3221 45.827 11.9889C45.6193 9.50761 43.335 7 39.3893 7C36.4906 7 33.4102 8.78865 33.4102 12.1029C33.4102 15.6173 36.4555 16.7433 38.9178 17.6538L38.9394 17.6617C39.0259 17.6924 39.1146 17.7253 39.2033 17.7582C39.292 17.7911 39.3806 17.8239 39.4672 17.8546L39.77 17.9686C41.5958 18.6437 43.4821 19.3452 43.4821 20.7656C43.4821 22.2298 41.5438 23.1329 39.7527 23.1329C37.5982 23.1329 36.0753 22.1421 35.8763 20.6253C35.8244 20.1343 35.5215 19.8449 35.0629 19.8449H33.791C33.4708 19.8449 33.2891 19.9677 33.1939 20.0817C33.0987 20.1869 32.9776 20.3886 33.0036 20.713C33.2891 24.3341 36.7069 25.9912 39.7614 25.9912C43.0062 25.9912 46.3634 24.0448 46.3634 20.7743C46.3634 17.4864 43.2225 16.329 40.6959 15.3996Z" fill="white"/>
<path fill-rule="evenodd" clip-rule="evenodd" d="M57.9841 7.01753C52.7319 7.01753 48.6218 11.1823 48.6218 16.5044C48.6218 21.8265 52.7319 25.9912 57.9841 25.9912C63.2363 25.9912 67.3464 21.8265 67.3464 16.5044C67.3464 11.1823 63.2363 7.01753 57.9841 7.01753ZM57.9841 23.1504C54.2807 23.1504 51.4945 20.2921 51.4945 16.5132C51.4945 12.7254 54.2807 9.87586 57.9841 9.87586C61.6875 9.87586 64.4736 12.7342 64.4736 16.5132C64.4736 20.2921 61.6875 23.1504 57.9841 23.1504Z" fill="white"/>
<path d="M73.3254 23.1943H80.0313C80.5245 23.1943 80.836 23.5099 80.8447 24.0185V25.1758C80.8447 25.6844 80.5332 26 80.0313 26H71.2574C70.7555 26 70.444 25.6844 70.444 25.1758V7.82418C70.444 7.31565 70.7555 7 71.2574 7H72.5121C73.0139 7 73.3254 7.31565 73.3254 7.82418V23.1943Z" fill="white"/>
<path d="M94.7496 7H85.2316C84.7297 7 84.4182 7.31565 84.4182 7.82418V25.1758C84.4182 25.6844 84.7297 26 85.2316 26H86.4863C86.9881 26 87.2996 25.6844 87.2996 25.1758V18.5911H92.2144C92.8374 18.5911 93.1575 16.7323 93.1575 16.3553C93.1575 16.2326 93.1402 16.1361 93.1143 16.0572C93.0537 15.8906 92.9239 15.7942 92.7682 15.7942H87.2996V9.80572H94.1959C94.8189 9.80572 95.139 7.94693 95.139 7.56991C95.139 7.44716 95.1217 7.35071 95.0958 7.2718C95.0352 7.09644 94.9054 7 94.7496 7Z" fill="white"/>
<path d="M130.018 19.275H131.42C131.714 19.275 131.948 19.3802 132.078 19.5819C132.199 19.7573 132.225 19.9852 132.138 20.222C130.918 23.6765 127.535 26 123.728 26C118.337 26 114.27 21.9229 114.27 16.5132C114.27 11.1034 118.337 7.0263 123.728 7.0263C127.518 7.0263 130.884 9.32349 132.112 12.7517C132.199 13.0323 132.173 13.2778 132.043 13.4619C131.905 13.6461 131.688 13.7513 131.411 13.7513H130.01C129.62 13.7513 129.317 13.5584 129.136 13.1814C128.219 11.1735 126.099 9.87586 123.719 9.87586C119.903 9.87586 117.134 12.6641 117.134 16.5132C117.134 20.3623 119.903 23.1504 123.719 23.1504C126.099 23.1504 128.227 21.8528 129.136 19.8537C129.326 19.4767 129.629 19.275 130.018 19.275Z" fill="white"/>
<path d="M138.022 7H136.767C136.266 7 135.954 7.31565 135.954 7.82418V25.1758C135.954 25.6844 136.266 26 136.767 26H138.022C138.524 26 138.835 25.6844 138.835 25.1758V7.82418C138.827 7.31565 138.515 7 138.022 7Z" fill="white"/>
<path d="M145.481 23.1943H152.187C152.688 23.1943 152.991 23.5099 153 24.0185V25.1758C153 25.6844 152.688 26 152.187 26H143.413C142.911 26 142.599 25.6844 142.599 25.1758V7.82418C142.599 7.31565 142.911 7 143.413 7H144.667C145.169 7 145.481 7.31565 145.481 7.82418V23.1943Z" fill="white"/>
<path d="M105.385 7.64515C105.25 7.23625 104.929 7 104.531 7H102.856C102.458 7 102.137 7.24534 102.002 7.64515L96.0292 24.9823C95.9107 25.3458 95.9953 25.582 96.0799 25.7092C96.173 25.8455 96.3506 26 96.7059 26H98.051C98.457 26 98.7616 25.7638 98.8969 25.3549L103.693 11.0163L105.884 17.5858L107.483 22.2382H107.441L108.482 25.3549C108.617 25.7638 108.93 26 109.336 26H110.681C111.036 26 111.222 25.8365 111.307 25.7092C111.392 25.5729 111.476 25.3367 111.358 24.9823L105.385 7.64515Z" fill="#FFB600"/>
</svg>
